<mxfile host="app.diagrams.net" agent="Mozilla/5.0 (Windows NT 10.0; Win64; x64) AppleWebKit/537.36 (KHTML, like Gecko) Chrome/131.0.0.0 Safari/537.36" version="24.8.6">
  <diagram name="Page-1" id="w35dl2rGBpTBqtN0Fw_Y">
    <mxGraphModel dx="880" dy="512" grid="1" gridSize="10" guides="1" tooltips="1" connect="1" arrows="1" fold="1" page="1" pageScale="1" pageWidth="850" pageHeight="1100" math="0" shadow="0">
      <root>
        <mxCell id="0" />
        <mxCell id="1" parent="0" />
        <mxCell id="hhSzWLkPJUWTTeGqYU0L-1" value="Start" style="rounded=1;whiteSpace=wrap;html=1;fillColor=#d5e8d4;strokeColor=#82b366;strokeWidth=2;fontSize=24;" vertex="1" parent="1">
          <mxGeometry x="360" y="40" width="180" height="60" as="geometry" />
        </mxCell>
        <mxCell id="hhSzWLkPJUWTTeGqYU0L-2" value="" style="endArrow=classic;html=1;rounded=0;exitX=0.5;exitY=1;exitDx=0;exitDy=0;strokeWidth=2;" edge="1" parent="1" source="hhSzWLkPJUWTTeGqYU0L-1">
          <mxGeometry width="50" height="50" relative="1" as="geometry">
            <mxPoint x="430" y="290" as="sourcePoint" />
            <mxPoint x="450" y="180" as="targetPoint" />
          </mxGeometry>
        </mxCell>
        <mxCell id="hhSzWLkPJUWTTeGqYU0L-5" value="" style="edgeStyle=orthogonalEdgeStyle;rounded=0;orthogonalLoop=1;jettySize=auto;html=1;strokeWidth=2;" edge="1" parent="1" source="hhSzWLkPJUWTTeGqYU0L-3">
          <mxGeometry relative="1" as="geometry">
            <mxPoint x="300" y="330" as="targetPoint" />
            <Array as="points">
              <mxPoint x="300" y="220" />
            </Array>
          </mxGeometry>
        </mxCell>
        <mxCell id="hhSzWLkPJUWTTeGqYU0L-3" value="Height&amp;gt;120" style="rhombus;whiteSpace=wrap;html=1;strokeWidth=2;fontSize=18;" vertex="1" parent="1">
          <mxGeometry x="350" y="180" width="200" height="80" as="geometry" />
        </mxCell>
        <mxCell id="hhSzWLkPJUWTTeGqYU0L-7" value="" style="endArrow=classic;html=1;rounded=0;exitX=1;exitY=0.5;exitDx=0;exitDy=0;strokeWidth=2;" edge="1" parent="1" source="hhSzWLkPJUWTTeGqYU0L-3">
          <mxGeometry width="50" height="50" relative="1" as="geometry">
            <mxPoint x="430" y="290" as="sourcePoint" />
            <mxPoint x="600" y="330" as="targetPoint" />
            <Array as="points">
              <mxPoint x="590" y="220" />
              <mxPoint x="600" y="220" />
            </Array>
          </mxGeometry>
        </mxCell>
        <mxCell id="hhSzWLkPJUWTTeGqYU0L-8" value="&lt;font style=&quot;font-size: 18px;&quot;&gt;No&lt;/font&gt;" style="text;html=1;align=center;verticalAlign=middle;resizable=0;points=[];autosize=1;strokeColor=none;fillColor=none;" vertex="1" parent="1">
          <mxGeometry x="305" y="183" width="50" height="40" as="geometry" />
        </mxCell>
        <mxCell id="hhSzWLkPJUWTTeGqYU0L-9" value="&lt;font style=&quot;font-size: 18px;&quot;&gt;Yes&lt;/font&gt;" style="text;html=1;align=center;verticalAlign=middle;resizable=0;points=[];autosize=1;strokeColor=none;fillColor=none;" vertex="1" parent="1">
          <mxGeometry x="545" y="183" width="50" height="40" as="geometry" />
        </mxCell>
      </root>
    </mxGraphModel>
  </diagram>
</mxfile>
